<svg xmlns="http://www.w3.org/2000/svg" xmlns:xlink="http://www.w3.org/1999/xlink" version="1.1" id="Слой_1" x="0px" y="0px" viewBox="0 0 75 30" style="enable-background:new 0 0 75 30;" xml:space="preserve">
<style type="text/css">
	.st0{fill-rule:evenodd;clip-rule:evenodd;fill:url(#SVGID_1_);}
</style>
    <linearGradient id="SVGID_1_" gradientUnits="userSpaceOnUse" x1="1.452791e-004" y1="15.0001" x2="75.04" y2="15.0001">
	<stop offset="0" style="stop-color:#F79132"/>
        <stop offset="1" style="stop-color:#FCB831"/>
</linearGradient>
    <path class="st0" d="M9.3,11.2c-3.3-0.3-7.9-0.5-7.1,4.3c2-2.7,3.2-2.5,6.4-2.4c1.8,0.1,3.6,0.2,5-0.8c0.6-0.5,1.1-1,1.2-2  C13.1,11.2,11.6,11.5,9.3,11.2 M9,13.8c-1,0-2.1,0.4-2.9,0.9C3.7,16,2,18.7,0.5,21C0.5,21,0,22,0,22c1.8-2.1,5.9-5.9,8.8-5.7  c1.8,0.1,1.8,1.5,2,2.4C11.7,17,11.4,13.9,9,13.8 M9.6,10.6c0.7,0,1.3-0.6,1.3-1.3c0-0.7-0.6-1.3-1.3-1.3C8.9,8,8.3,8.6,8.3,9.3  C8.3,10,8.9,10.6,9.6,10.6 M40.5,13.1l-1,2.1H42l-0.5,1h-4.3c-1.3,0-1.8-1.2-1.2-2.3c0.8-1.3,1.5-1.4,2.9-1.4h7.4l1-2.2h-8.5  c-1.3,0-2.4,0.1-3.5,0.8c-2.8,2-3.5,6.9,1.3,7.2h6.9l2.4-5.3H40.5z M67.5,10.3c-0.7,0-1.8,0.1-2.5,2c-0.3,0.7-0.6,1.3-1,2  c-0.3,0.7-0.6,1.4-0.9,2c-0.3,0.7-0.6,1.3-0.9,2h3.2c0.3-0.7,0.6-1.3,0.9-2c0.1-0.3,0.2-0.5,0.3-0.7h2.8l-1.2,2.7h3.2l3.7-8H67.5z   M70.7,12.9c0,0.1-0.1,0.2-0.2,0.4c0,0.1-0.1,0.2-0.2,0.3c0,0.1-0.1,0.2-0.1,0.3h-2.8c0-0.1,0.1-0.2,0.1-0.3  c0.1-0.1,0.1-0.3,0.2-0.3c0.3-0.6,0.3-0.7,1-0.7h2.1C70.8,12.7,70.7,12.8,70.7,12.9 M50.5,10.3c-0.7,0-1.8,0.1-2.5,2  c-0.3,0.7-0.6,1.3-0.9,2c-0.3,0.7-0.6,1.4-0.9,2c-0.3,0.7-0.6,1.3-0.9,2h3.2c0.3-0.7,0.6-1.3,0.9-2c0.1-0.2,0.2-0.3,0.3-0.5  c0-0.2,0.1-0.3,0.2-0.5c0.1-0.2,0.2-0.3,0.3-0.5c0-0.2,0.1-0.3,0.2-0.5c0.1-0.1,0.1-0.3,0.2-0.4c0.1-0.2,0.1-0.3,0.2-0.5  c0.1-0.2,0.1-0.3,0.2-0.5c0.2-0.5,0.3-0.5,1-0.5H54l-2.7,5.8h3.2l2.7-5.8h2.9l-2.7,5.8h3.2l3.7-8H50.5z M23.9,10.3h-5.3l-3.7,8h7  c0.4,0,0.8,0,1.2-0.1C27.3,17.4,29.6,10.6,23.9,10.3 M24.3,14.8c-0.8,1.3-1.5,1.4-2.9,1.4h-2.3l1.7-3.6h3.1  C25.1,12.5,24.9,13.8,24.3,14.8 M30.4,10.3l-3.7,8h3.2l3.7-8H30.4z"/>
</svg>