<svg xmlns="http://www.w3.org/2000/svg" version="1.0" width="795.000000pt" height="600.000000pt" viewBox="0 0 795.000000 600.000000" preserveAspectRatio="xMidYMid meet">
    <g transform="translate(0.000000,600.000000) scale(0.100000,-0.100000)" fill="#000000" stroke="none">
        <path d="M2240 5378 c0 -167 -3 -1130 -7 -2141 l-6 -1837 314 0 315 0 61 88 c220 315 530 576 911 765 89 44 165 78 168 75 3 -3 48 -153 100 -334 98 -343 106 -388 80 -466 -8 -24 -74 -232 -146 -463 -72 -231 -156 -498 -186 -593 -30 -94 -54 -175 -54 -180 0 -4 121 -6 270 -4 l269 3 20 67 c11 37 164 573 341 1192 177 619 323 1126 324 1128 2 1 52 13 112 27 137 30 345 61 556 81 225 21 931 30 1225 15 349 -18 691 -45 738 -58 11 -3 17 -2 13 2 -8 8 -176 44 -396 85 -702 129 -1466 149 -2082 55 -52 -8 -96 -13 -97 -11 -2 2 23 97 56 212 32 115 107 380 166 589 59 209 110 386 112 393 4 9 -51 12 -255 12 l-260 0 -52 -217 c-171 -710 -262 -1079 -268 -1085 -9 -8 -224 -70 -228 -65 -4 3 -21 83 -198 922 l-92 440 -288 3 c-271 2 -287 1 -282 -15 15 -47 407 -1402 423 -1462 8 -29 11 -57 6 -61 -4 -4 -37 -17 -73 -30 -301 -109 -685 -325 -1022 -576 l-98 -73 0 1910 0 1909 -245 0 -245 0 0 -302z m2286 -2865 c-3 -10 -17 -71 -30 -137 -14 -65 -27 -120 -29 -123 -3 -2 -16 45 -31 104 -15 59 -29 116 -32 125 -4 13 6 20 43 32 67 20 86 20 79 -1z"/>
        <path d="M961 5660 c-125 -27 -232 -109 -294 -227 -89 -170 -97 -248 -97 -910 l0 -543 -115 0 -115 0 0 -195 0 -195 115 0 115 0 0 -1100 0 -1100 250 0 250 0 0 1105 0 1105 195 0 195 0 0 190 0 190 -188 0 -189 0 -5 485 c-4 288 -2 503 4 528 13 59 50 111 95 133 63 31 193 22 308 -22 13 -5 15 23 15 245 l0 250 -28 15 c-64 33 -148 47 -307 51 -88 2 -180 0 -204 -5z"/>
    </g>
</svg>
