<svg xmlns="http://www.w3.org/2000/svg" version="1.1" height="54" width="300">
    <path d="m-0.00124-0.00008,96.314,0,0,54-19.131,0,0-45.047-5.6687,0,0,45.047-26.579,0,0-45.047-5.7186,0,0,45.047-39.217,0z" fill-rule="evenodd" fill="#000"/>
    <path d="m167.38-0.00008,11.499,0,0,53.711-11.499,0,0-53.711z" fill-rule="evenodd" fill="#000"/>
    <path d="m105.54-0.00008,54.744,0,0,7.2977-41.479,0,0,17.092,41.479,0,0,5.5175-41.479,0,0,16.506,41.479,0,0,7.2989-54.744,0z" fill-rule="evenodd" fill="#000"/>
    <path d="m185.01-0.00008,53.122,0,0.006,5.6557-42.56,42.539,42.393,0,0,5.7347-53.121,0,0-5.7347,43.095-42.459-42.935,0,0-5.7359z" fill-rule="evenodd" fill="#000"/>
    <path d="m243.9-0.00008,5.468,0,0,48.236,45.17,0,0-48.236,5.468,0,0,53.711-56.106,0z" fill-rule="evenodd" fill="#000"/>
</svg>
